<?xml version="1.0" standalone="no"?>
<!DOCTYPE svg PUBLIC "-//W3C//DTD SVG 20010904//EN"
 "http://www.w3.org/TR/2001/REC-SVG-20010904/DTD/svg10.dtd">
<svg version="1.0" xmlns="http://www.w3.org/2000/svg"
 width="512.000000pt" height="512.000000pt" viewBox="0 0 512.000000 512.000000"
 preserveAspectRatio="xMidYMid meet">
<metadata>
Created by potrace 1.16, written by Peter Selinger 2001-2019
</metadata>
<g transform="translate(0.000000,512.000000) scale(0.100000,-0.100000)"
fill="#000000" stroke="none">
<path d="M2390 5030 c-1079 -81 -1978 -874 -2206 -1944 -39 -184 -54 -333 -54
-529 0 -209 11 -319 51 -518 76 -382 230 -716 478 -1039 87 -114 323 -348 441
-437 354 -268 770 -434 1209 -484 137 -15 493 -6 621 16 627 107 1168 433
1547 931 574 755 675 1783 257 2631 -369 749 -1065 1255 -1864 1357 -152 19
-350 26 -480 16z m90 -565 l0 -315 80 0 80 0 0 317 0 316 98 -6 c120 -7 325
-47 456 -88 106 -33 323 -124 393 -165 l42 -24 -60 -101 c-85 -143 -169 -289
-169 -294 0 -4 65 -45 73 -45 5 0 67 101 168 277 35 62 66 113 69 113 3 0 42
-26 87 -58 158 -111 316 -261 460 -438 46 -55 173 -242 173 -254 0 -4 -83 -55
-185 -114 -102 -59 -185 -110 -185 -114 0 -20 42 -73 55 -69 7 3 90 51 184
106 95 56 175 101 179 101 15 0 130 -278 168 -409 43 -149 94 -441 94 -543 0
-17 -20 -18 -295 -18 l-295 0 0 -80 0 -80 296 0 296 0 -7 -87 c-22 -285 -97
-577 -208 -805 l-42 -86 -185 109 c-102 60 -188 109 -192 109 -12 0 -51 -71
-42 -79 5 -5 88 -54 184 -111 96 -56 178 -105 182 -109 10 -9 -111 -193 -198
-300 -37 -46 -106 -122 -153 -169 -135 -134 -355 -304 -370 -286 -4 5 -56 92
-115 194 -59 102 -112 189 -116 194 -7 7 -80 -28 -80 -40 0 -2 34 -63 77 -136
130 -226 153 -267 153 -273 0 -15 -281 -140 -402 -179 -178 -59 -424 -106
-550 -106 l-38 0 0 325 0 325 -80 0 -80 0 0 -325 0 -325 -37 0 c-137 0 -369
45 -555 106 -123 41 -398 164 -398 179 0 3 52 95 115 205 63 109 115 203 115
207 0 12 -71 46 -79 38 -3 -4 -56 -93 -116 -198 -61 -105 -115 -192 -122 -194
-6 -2 -66 38 -134 88 -208 155 -424 391 -552 601 -45 75 -65 52 170 189 95 55
173 102 173 104 0 15 -36 75 -44 75 -6 0 -94 -49 -196 -109 l-185 -109 -50
102 c-56 115 -125 316 -155 452 -24 110 -50 307 -50 375 l0 49 295 0 295 0 0
80 0 80 -295 0 -295 0 0 45 c0 128 59 433 116 599 42 121 133 326 145 326 5 0
89 -47 188 -105 99 -58 184 -105 188 -105 14 0 45 72 36 80 -4 4 -87 53 -183
110 -96 57 -177 104 -179 106 -7 6 61 112 135 210 98 131 209 251 330 354 95
82 252 196 258 188 2 -1 52 -86 111 -188 59 -102 111 -189 115 -193 8 -9 80
22 80 36 0 5 -49 94 -110 198 -60 104 -110 192 -110 196 0 18 219 122 355 170
170 58 427 110 558 112 l67 1 0 -315z"/>
<path d="M2645 4048 c-49 -18 -114 -67 -145 -110 -52 -71 -72 -141 -78 -270
l-5 -118 -78 0 -79 0 0 -40 0 -39 78 -3 77 -3 0 -360 c-1 -401 -3 -417 -61
-441 -19 -8 -45 -14 -59 -14 -20 0 -25 -5 -25 -25 l0 -25 240 0 240 0 0 25 c0
23 -4 25 -40 25 -22 0 -55 6 -74 14 -59 25 -61 40 -61 441 l0 360 113 3 112 3
0 39 0 40 -116 0 -116 0 4 163 c5 171 14 213 57 251 30 27 86 24 117 -5 13
-13 38 -44 55 -70 46 -72 115 -85 145 -27 48 93 -67 199 -215 197 -31 0 -69
-5 -86 -11z"/>
<path d="M2981 2713 c-12 -15 -169 -175 -348 -355 l-325 -327 75 -84 c41 -46
82 -96 92 -110 19 -30 37 -34 53 -14 8 9 4 27 -15 65 -31 62 -39 127 -24 175
7 19 46 72 89 117 l77 83 395 -402 c217 -222 405 -419 418 -439 28 -46 23 -82
-19 -135 -29 -36 -30 -40 -15 -55 15 -15 30 -3 196 163 99 99 180 185 180 191
0 25 -32 22 -72 -6 -29 -22 -52 -30 -82 -30 -40 0 -45 4 -459 418 l-418 417
85 82 c100 96 141 113 216 94 25 -7 61 -23 81 -36 36 -23 37 -24 54 -5 17 18
16 20 -16 47 -34 28 -107 92 -165 146 l-31 28 -22 -28z"/>
</g>
</svg>
